<?xml version="1.0" encoding="utf-8"?>
<!-- Generator: Adobe Illustrator 16.0.0, SVG Export Plug-In . SVG Version: 6.00 Build 0)  -->
<!DOCTYPE svg PUBLIC "-//W3C//DTD SVG 1.1//EN" "http://www.w3.org/Graphics/SVG/1.1/DTD/svg11.dtd">
<svg version="1.1" id="Layer_1" xmlns="http://www.w3.org/2000/svg" xmlns:xlink="http://www.w3.org/1999/xlink" x="0px" y="0px"
	 width="117.844px" height="108.429px" viewBox="0 0 117.844 108.429" enable-background="new 0 0 117.844 108.429"
	 xml:space="preserve">
<g>
	<path fill="#098D45" d="M76.635,0c-1.781,9.449-9.936,16.872-18.593,20.177c-5.927,2.264-28.108,6.813-16.594,28.752
		c-2.032,3.727-4.626,10.369-4.626,10.369l3.621,2.294c-1.198-1.841,3.327-10.523,3.327-10.523s-0.318,1.299-0.325,1.294
		c0.01-0.179,4.459-17.219,22.822-22.78c0,0-17.376,8.604-20.461,23.546c6.977-0.329,22.904,3.911,31.111-13.32
		C83.869,28.011,80.756,12.839,76.635,0z"/>
	<g>
		<path fill="#FFFFFF" d="M13.057,74.416c0.486,0,0.941-0.051,1.354-0.15c0.422-0.104,0.793-0.261,1.103-0.462
			c0.329-0.211,0.589-0.479,0.775-0.799c0.188-0.324,0.283-0.696,0.283-1.109c0-0.464-0.111-0.891-0.331-1.269
			c-0.221-0.383-0.572-0.712-1.045-0.979c-0.453-0.256-1.05-0.456-1.771-0.594c-0.71-0.135-1.585-0.204-2.604-0.204
			c-1.09,0-2.085,0.162-2.96,0.482c-0.884,0.324-1.649,0.811-2.274,1.446c-0.623,0.638-1.105,1.427-1.435,2.349
			c-0.325,0.909-0.49,1.975-0.49,3.163v1.555H0.149v2.544h3.513v14.062c0,0.546-0.073,0.981-0.22,1.294
			c-0.142,0.305-0.323,0.532-0.555,0.692c-0.238,0.163-0.517,0.271-0.85,0.326c-0.357,0.06-0.752,0.091-1.171,0.091H0v2.333h12.609
			v-2.333h-1.825c-0.407,0-0.799-0.031-1.163-0.091c-0.335-0.056-0.623-0.166-0.857-0.326c-0.231-0.16-0.413-0.386-0.555-0.692
			c-0.146-0.312-0.221-0.748-0.221-1.294V80.389h5.429v-2.544H7.988v-1.91c0-0.787,0.046-1.489,0.137-2.089
			c0.087-0.568,0.235-1.051,0.44-1.432c0.192-0.357,0.446-0.631,0.753-0.808c0.314-0.181,0.72-0.271,1.202-0.271
			c0.428,0,0.78,0.073,1.05,0.22c0.276,0.148,0.49,0.338,0.651,0.579c0.169,0.249,0.29,0.541,0.361,0.863
			c0.075,0.339,0.113,0.694,0.113,1.058v0.36H13.057z"/>
		<path fill="#FFFFFF" d="M32.417,96.736c-0.241-0.07-0.429-0.184-0.57-0.344c-0.15-0.169-0.263-0.405-0.335-0.695
			c-0.08-0.32-0.121-0.74-0.121-1.246v-9.972c0-1.263-0.155-2.348-0.461-3.227c-0.313-0.9-0.794-1.644-1.425-2.206
			c-0.627-0.563-1.416-0.972-2.344-1.216c-0.903-0.239-1.972-0.36-3.174-0.36c-0.962,0-1.885,0.07-2.744,0.211
			c-0.868,0.144-1.642,0.37-2.3,0.677c-0.683,0.318-1.229,0.736-1.626,1.241c-0.412,0.527-0.621,1.171-0.621,1.912
			c0,1.013,0.337,1.747,1,2.181c0.613,0.399,1.498,0.603,2.629,0.603h0.36v-0.36c0-0.574,0.042-1.117,0.127-1.611
			c0.078-0.46,0.231-0.859,0.459-1.191c0.216-0.318,0.526-0.568,0.921-0.747c0.408-0.185,0.961-0.277,1.645-0.277
			c0.73,0,1.312,0.104,1.729,0.31c0.41,0.202,0.715,0.476,0.93,0.839c0.224,0.374,0.372,0.833,0.439,1.364
			c0.073,0.561,0.111,1.186,0.111,1.859v1.963l-2.844,0.1c-2.997,0.089-5.279,0.652-6.784,1.677
			c-1.55,1.057-2.336,2.687-2.336,4.845c0,1.092,0.16,2.055,0.476,2.862c0.318,0.815,0.767,1.503,1.335,2.046
			c0.569,0.543,1.254,0.948,2.032,1.207c0.768,0.256,1.606,0.386,2.489,0.386c0.836,0,1.565-0.099,2.165-0.29
			c0.599-0.188,1.148-0.462,1.633-0.811c0.472-0.341,0.911-0.754,1.307-1.227c0.305-0.366,0.617-0.76,0.938-1.183l0.57,3.133h5.862
			v-2.333h-0.473C33.034,96.854,32.697,96.814,32.417,96.736z M27.046,88.744v2.738c0,0.771-0.113,1.475-0.337,2.096
			c-0.219,0.614-0.536,1.141-0.942,1.565c-0.405,0.422-0.906,0.751-1.486,0.984c-0.594,0.231-1.261,0.35-1.983,0.35
			c-0.948,0-1.649-0.26-2.083-0.766c-0.448-0.523-0.675-1.351-0.675-2.46c0-0.712,0.092-1.342,0.274-1.877
			c0.171-0.512,0.461-0.951,0.862-1.3c0.408-0.357,0.96-0.645,1.642-0.848c0.695-0.208,1.585-0.34,2.646-0.388L27.046,88.744z"/>
		<path fill="#FFFFFF" d="M69.219,96.764c-0.31-0.053-0.568-0.157-0.785-0.317c-0.214-0.16-0.377-0.383-0.504-0.687
			c-0.129-0.312-0.194-0.755-0.194-1.309v-9.09c0-1.342-0.151-2.521-0.45-3.504c-0.298-0.993-0.742-1.826-1.313-2.474
			c-0.577-0.646-1.286-1.135-2.113-1.449c-0.813-0.31-1.742-0.464-2.758-0.464c-0.617,0-1.222,0.048-1.799,0.146
			c-0.591,0.099-1.159,0.287-1.696,0.559c-0.538,0.271-1.056,0.654-1.531,1.14c-0.402,0.406-0.782,0.914-1.134,1.513
			c-0.234-0.523-0.516-0.982-0.845-1.362c-0.411-0.476-0.878-0.867-1.39-1.158c-0.513-0.294-1.072-0.508-1.669-0.64
			c-1.143-0.257-2.496-0.251-3.625-0.051c-0.565,0.099-1.114,0.288-1.629,0.562c-0.516,0.273-1.005,0.658-1.455,1.143
			c-0.315,0.338-0.616,0.736-0.912,1.204l-0.434-2.682h-6.696v2.336h0.474c0.4,0,0.777,0.031,1.121,0.089
			c0.312,0.055,0.572,0.157,0.792,0.313c0.207,0.149,0.375,0.369,0.499,0.653c0.13,0.291,0.194,0.7,0.194,1.215v12
			c0,0.557-0.063,0.999-0.189,1.313c-0.12,0.302-0.28,0.523-0.487,0.679c-0.221,0.163-0.479,0.268-0.791,0.32
			c-0.336,0.06-0.72,0.091-1.139,0.091h-0.867v2.333h11.066v-2.333h-0.47c-0.411,0-0.799-0.028-1.162-0.082
			c-0.329-0.051-0.622-0.149-0.867-0.298c-0.23-0.141-0.41-0.347-0.549-0.631c-0.146-0.295-0.219-0.7-0.219-1.204v-8.113
			c0-0.801,0.073-1.573,0.219-2.296c0.139-0.704,0.378-1.334,0.704-1.873c0.32-0.522,0.743-0.942,1.258-1.248
			c0.512-0.304,1.162-0.459,1.931-0.459c0.681,0,1.264,0.107,1.73,0.316c0.45,0.204,0.821,0.509,1.101,0.902
			c0.289,0.408,0.503,0.92,0.639,1.522c0.138,0.628,0.208,1.354,0.208,2.158v13.638h7.407v-2.333h-0.476
			c-0.405,0-0.783-0.031-1.12-0.091c-0.307-0.053-0.571-0.16-0.785-0.32c-0.214-0.155-0.377-0.38-0.504-0.684
			c-0.13-0.315-0.197-0.757-0.197-1.309V86.02c0-0.748,0.07-1.463,0.208-2.124c0.136-0.646,0.363-1.219,0.673-1.7
			s0.703-0.85,1.199-1.131c0.489-0.274,1.108-0.414,1.843-0.414c0.681,0,1.264,0.107,1.73,0.316c0.45,0.204,0.822,0.509,1.101,0.902
			c0.29,0.411,0.507,0.923,0.639,1.522c0.138,0.625,0.208,1.351,0.208,2.158v13.638h7.407v-2.333h-0.476
			C69.934,96.854,69.557,96.823,69.219,96.764z"/>
		<path fill="#FFFFFF" d="M75.919,74.094c0.239,0.225,0.521,0.387,0.833,0.484c0.296,0.093,0.622,0.138,0.971,0.138
			c0.335,0,0.653-0.045,0.951-0.138c0.312-0.099,0.592-0.262,0.83-0.49c0.231-0.222,0.417-0.512,0.552-0.858
			c0.138-0.343,0.206-0.767,0.206-1.259c0-0.494-0.068-0.918-0.206-1.26c-0.135-0.348-0.32-0.636-0.552-0.859
			c-0.238-0.229-0.521-0.39-0.838-0.479c-0.603-0.175-1.331-0.166-1.905-0.002c-0.318,0.09-0.603,0.252-0.842,0.478
			c-0.239,0.222-0.428,0.515-0.562,0.87c-0.127,0.344-0.191,0.765-0.191,1.253c0,0.486,0.064,0.907,0.191,1.255
			C75.491,73.579,75.68,73.871,75.919,74.094z"/>
		<path fill="#FFFFFF" d="M81.668,96.764c-0.334-0.053-0.621-0.163-0.855-0.326c-0.236-0.16-0.416-0.388-0.557-0.689
			c-0.146-0.317-0.22-0.754-0.22-1.297V77.845h-7.595v2.336h0.473c0.402,0,0.79,0.031,1.153,0.09
			c0.335,0.055,0.619,0.16,0.867,0.321c0.233,0.153,0.416,0.368,0.557,0.657c0.146,0.294,0.22,0.699,0.22,1.202V94.64
			c0,0.504-0.073,0.909-0.22,1.204c-0.138,0.284-0.317,0.49-0.546,0.631c-0.25,0.148-0.534,0.247-0.872,0.298
			c-0.36,0.054-0.749,0.082-1.159,0.082h-0.867v2.333H83.7v-2.333h-0.869C82.423,96.854,82.031,96.823,81.668,96.764z"/>
		<path fill="#FFFFFF" d="M94.242,96.764c-0.332-0.056-0.614-0.163-0.858-0.329c-0.239-0.16-0.42-0.383-0.552-0.681
			c-0.141-0.318-0.211-0.757-0.211-1.303V69.243h-7.989v2.336h0.847c0.408,0,0.797,0.027,1.159,0.08
			c0.33,0.048,0.619,0.153,0.861,0.312c0.233,0.152,0.417,0.367,0.558,0.656c0.144,0.292,0.217,0.696,0.217,1.203v20.62
			c0,0.546-0.073,0.981-0.223,1.297c-0.138,0.304-0.318,0.529-0.549,0.689c-0.242,0.163-0.521,0.271-0.853,0.326
			c-0.357,0.06-0.751,0.091-1.171,0.091h-0.847v2.333h11.634v-2.333h-0.851C94.996,96.854,94.602,96.823,94.242,96.764z"/>
		<path fill="#FFFFFF" d="M109.123,77.845v2.336h0.473c0.771,0,1.342,0.13,1.697,0.384c0.32,0.231,0.478,0.608,0.478,1.152
			c0,0.188-0.025,0.418-0.075,0.685c-0.054,0.262-0.133,0.548-0.242,0.853l-2.575,7.491c-0.329,0.945-0.619,1.826-0.858,2.617
			c-0.099,0.326-0.188,0.633-0.27,0.92c-0.003-0.012-0.006-0.02-0.009-0.031c-0.138-0.453-0.293-0.935-0.462-1.443
			c-0.171-0.513-0.352-1.03-0.549-1.554c-0.193-0.521-0.383-1.002-0.557-1.446l-2.817-6.85c-0.104-0.263-0.177-0.498-0.217-0.696
			c-0.039-0.201-0.059-0.398-0.059-0.581c0-0.526,0.144-0.896,0.437-1.126c0.314-0.247,0.824-0.374,1.514-0.374h0.473v-2.336h-9.959
			v2.336h0.473c0.344,0,0.642,0.028,0.884,0.084c0.22,0.053,0.405,0.141,0.574,0.271c0.169,0.134,0.329,0.317,0.47,0.539
			c0.154,0.244,0.318,0.561,0.481,0.935l7.068,16.69c-0.301,1.008-0.669,1.953-1.097,2.812c-0.437,0.881-0.988,1.654-1.639,2.302
			c-0.649,0.642-1.43,1.151-2.315,1.517c-0.893,0.369-1.979,0.558-3.226,0.558h-0.359v2.541h0.697c1.143,0,2.17-0.051,3.048-0.152
			c0.895-0.104,1.694-0.295,2.381-0.568c0.692-0.272,1.322-0.645,1.874-1.108c0.54-0.456,1.047-1.041,1.509-1.742
			c0.447-0.687,0.881-1.52,1.286-2.468c0.396-0.929,0.827-2.035,1.283-3.29l5.842-16.15c0.22-0.596,0.422-1.092,0.604-1.469
			c0.172-0.352,0.355-0.63,0.546-0.827c0.178-0.18,0.366-0.301,0.58-0.366c0.233-0.07,0.523-0.106,0.861-0.106h0.473v-2.336H109.123
			z"/>
	</g>
</g>
</svg>
