<?xml version="1.0" encoding="utf-8"?>
<!-- Generator: Adobe Illustrator 16.0.3, SVG Export Plug-In . SVG Version: 6.00 Build 0)  -->
<!DOCTYPE svg PUBLIC "-//W3C//DTD SVG 1.1//EN" "http://www.w3.org/Graphics/SVG/1.1/DTD/svg11.dtd">
<svg version="1.1" id="Layer_1" xmlns="http://www.w3.org/2000/svg" xmlns:xlink="http://www.w3.org/1999/xlink" x="0px" y="0px"
	 width="106.172px" height="27.471px" viewBox="0 0 106.172 27.471" enable-background="new 0 0 106.172 27.471"
	 xml:space="preserve">
<g>
	<path fill="#098D45" d="M15.628,0.177c-0.699,3.709-3.9,6.623-7.299,7.92C6.003,8.986-2.704,10.772,1.816,19.384
		C1.018,20.847,0,23.455,0,23.455l1.421,0.9c-0.47-0.723,1.306-4.132,1.306-4.132S2.603,20.734,2.6,20.731
		c0.004-0.069,1.75-6.759,8.959-8.941c0,0-6.821,3.378-8.032,9.243c2.739-0.13,8.991,1.534,12.212-5.229
		C18.468,11.173,17.245,5.217,15.628,0.177z"/>
	<g>
		<path fill="#FFFFFF" d="M33.444,3.863c0.337,0,0.653-0.035,0.94-0.105c0.293-0.072,0.551-0.18,0.766-0.32
			c0.228-0.146,0.409-0.333,0.538-0.554c0.13-0.225,0.196-0.484,0.196-0.771c0-0.321-0.077-0.618-0.229-0.881
			c-0.153-0.265-0.397-0.494-0.725-0.679c-0.315-0.179-0.729-0.317-1.23-0.413C33.208,0.048,32.6,0,31.893,0
			c-0.756,0-1.447,0.113-2.054,0.334c-0.614,0.225-1.145,0.562-1.579,1.005c-0.433,0.442-0.768,0.99-0.996,1.629
			c-0.226,0.631-0.34,1.37-0.34,2.195v1.08h-2.438v1.765h2.438v9.761c0,0.379-0.051,0.681-0.152,0.898
			c-0.099,0.211-0.225,0.368-0.385,0.479c-0.166,0.114-0.358,0.188-0.59,0.227c-0.248,0.042-0.521,0.062-0.812,0.062h-0.602v1.62
			h8.751v-1.62h-1.267c-0.283,0-0.554-0.021-0.807-0.062c-0.232-0.038-0.433-0.114-0.595-0.227c-0.161-0.11-0.287-0.268-0.385-0.479
			c-0.102-0.218-0.153-0.521-0.153-0.898V8.008h3.768V6.244h-3.768V4.917c0-0.545,0.032-1.033,0.095-1.448
			c0.061-0.395,0.164-0.73,0.306-0.995c0.133-0.248,0.31-0.437,0.522-0.56c0.218-0.125,0.499-0.188,0.834-0.188
			c0.296,0,0.541,0.051,0.729,0.153c0.191,0.104,0.34,0.235,0.452,0.402c0.117,0.173,0.201,0.375,0.25,0.599
			c0.052,0.235,0.079,0.482,0.079,0.734v0.25H33.444z"/>
		<path fill="#FFFFFF" d="M46.881,19.354c-0.167-0.049-0.297-0.126-0.396-0.237c-0.104-0.118-0.182-0.281-0.232-0.483
			c-0.056-0.222-0.083-0.513-0.083-0.864v-6.922c0-0.875-0.108-1.629-0.32-2.24c-0.218-0.625-0.551-1.14-0.989-1.531
			c-0.435-0.39-0.983-0.673-1.627-0.844c-0.627-0.166-1.368-0.25-2.203-0.25c-0.667,0-1.308,0.049-1.904,0.147
			c-0.603,0.099-1.14,0.257-1.596,0.47c-0.474,0.221-0.854,0.51-1.128,0.861c-0.286,0.366-0.431,0.812-0.431,1.327
			c0,0.703,0.233,1.212,0.694,1.513c0.426,0.278,1.04,0.418,1.825,0.418h0.25v-0.25c0-0.399,0.029-0.775,0.088-1.118
			c0.054-0.319,0.161-0.597,0.319-0.827c0.15-0.221,0.365-0.396,0.639-0.519c0.283-0.128,0.667-0.193,1.142-0.193
			c0.506,0,0.91,0.072,1.2,0.215c0.284,0.141,0.496,0.331,0.645,0.582c0.155,0.26,0.258,0.578,0.305,0.947
			c0.051,0.389,0.077,0.823,0.077,1.291v1.363l-1.973,0.069c-2.08,0.062-3.665,0.453-4.709,1.164
			c-1.076,0.733-1.621,1.864-1.621,3.362c0,0.758,0.111,1.427,0.33,1.986c0.221,0.566,0.532,1.044,0.927,1.42
			c0.395,0.377,0.87,0.659,1.41,0.838c0.533,0.178,1.115,0.269,1.728,0.269c0.58,0,1.086-0.068,1.502-0.202
			c0.416-0.131,0.797-0.32,1.133-0.562c0.327-0.236,0.632-0.522,0.907-0.852c0.211-0.253,0.428-0.526,0.65-0.819l0.396,2.174h4.069
			v-1.62h-0.328C47.31,19.437,47.076,19.409,46.881,19.354z M43.153,13.808v1.901c0,0.534-0.079,1.023-0.233,1.455
			c-0.152,0.425-0.372,0.79-0.654,1.085c-0.281,0.293-0.629,0.522-1.032,0.684c-0.412,0.16-0.875,0.242-1.376,0.242
			c-0.658,0-1.145-0.179-1.446-0.531c-0.311-0.363-0.468-0.938-0.468-1.707c0-0.493,0.063-0.932,0.19-1.303
			c0.119-0.355,0.32-0.659,0.599-0.903c0.284-0.248,0.667-0.446,1.139-0.587c0.483-0.146,1.101-0.236,1.836-0.27L43.153,13.808z"/>
		<path fill="#FFFFFF" d="M72.423,19.375c-0.215-0.038-0.394-0.11-0.545-0.222c-0.147-0.11-0.262-0.266-0.349-0.476
			c-0.09-0.218-0.136-0.523-0.136-0.908V11.46c0-0.932-0.104-1.75-0.312-2.432c-0.208-0.69-0.516-1.267-0.913-1.716
			c-0.399-0.45-0.893-0.789-1.466-1.006c-0.564-0.214-1.209-0.323-1.914-0.323c-0.428,0-0.848,0.034-1.248,0.102
			c-0.41,0.069-0.806,0.2-1.178,0.388C63.99,6.661,63.631,6.927,63.3,7.264c-0.278,0.283-0.543,0.635-0.787,1.05
			c-0.161-0.364-0.357-0.681-0.586-0.946c-0.284-0.33-0.608-0.601-0.965-0.803c-0.354-0.204-0.744-0.353-1.158-0.445
			c-0.792-0.177-1.732-0.173-2.515-0.035c-0.394,0.069-0.774,0.2-1.131,0.39c-0.358,0.19-0.698,0.458-1.011,0.793
			c-0.219,0.235-0.428,0.511-0.632,0.836l-0.302-1.861h-4.647v1.621h0.329c0.278,0,0.54,0.021,0.778,0.061
			c0.217,0.038,0.397,0.109,0.55,0.218c0.144,0.104,0.261,0.255,0.347,0.453c0.09,0.203,0.135,0.486,0.135,0.844v8.33
			c0,0.386-0.044,0.692-0.132,0.911c-0.083,0.209-0.194,0.363-0.338,0.472c-0.153,0.112-0.333,0.185-0.549,0.223
			c-0.233,0.041-0.5,0.062-0.791,0.062h-0.602v1.62h7.682v-1.62h-0.327c-0.284,0-0.555-0.02-0.806-0.057
			c-0.229-0.034-0.433-0.104-0.603-0.207c-0.159-0.097-0.284-0.24-0.381-0.438c-0.101-0.204-0.151-0.485-0.151-0.835v-5.632
			c0-0.556,0.051-1.092,0.151-1.594c0.097-0.488,0.262-0.925,0.489-1.3c0.222-0.363,0.516-0.654,0.872-0.867
			c0.356-0.211,0.807-0.318,1.34-0.318c0.474,0,0.878,0.074,1.201,0.22c0.313,0.141,0.571,0.352,0.765,0.626
			c0.2,0.283,0.35,0.639,0.442,1.057c0.096,0.436,0.145,0.939,0.145,1.498v9.466h5.141v-1.62h-0.329
			c-0.281,0-0.543-0.021-0.778-0.062c-0.212-0.037-0.396-0.112-0.545-0.223c-0.147-0.108-0.261-0.264-0.349-0.475
			c-0.091-0.22-0.137-0.525-0.137-0.908v-5.853c0-0.519,0.049-1.015,0.145-1.474c0.094-0.449,0.251-0.846,0.467-1.18
			c0.215-0.333,0.487-0.59,0.831-0.785c0.34-0.19,0.771-0.287,1.28-0.287c0.473,0,0.877,0.074,1.2,0.22
			c0.313,0.141,0.571,0.352,0.765,0.626c0.201,0.284,0.351,0.64,0.443,1.057c0.096,0.433,0.144,0.937,0.144,1.498v9.466h5.141v-1.62
			h-0.329C72.92,19.437,72.659,19.416,72.423,19.375z"/>
		<path fill="#FFFFFF" d="M77.074,3.64c0.167,0.155,0.361,0.268,0.578,0.335c0.206,0.064,0.433,0.096,0.674,0.096
			c0.232,0,0.454-0.032,0.66-0.096c0.218-0.068,0.411-0.181,0.576-0.339c0.16-0.155,0.289-0.356,0.384-0.596
			c0.095-0.238,0.143-0.533,0.143-0.875c0-0.342-0.048-0.637-0.143-0.874c-0.095-0.242-0.224-0.442-0.384-0.597
			c-0.165-0.159-0.361-0.271-0.582-0.333c-0.417-0.121-0.923-0.115-1.322,0c-0.22,0.062-0.417,0.174-0.584,0.331
			c-0.166,0.154-0.297,0.357-0.391,0.604c-0.088,0.238-0.133,0.531-0.133,0.869c0,0.338,0.045,0.63,0.134,0.871
			C76.777,3.282,76.908,3.485,77.074,3.64z"/>
		<path fill="#FFFFFF" d="M81.064,19.374c-0.232-0.037-0.432-0.113-0.594-0.227c-0.163-0.111-0.289-0.269-0.387-0.479
			c-0.101-0.22-0.152-0.522-0.152-0.899V6.244h-5.271v1.621h0.328c0.279,0,0.549,0.021,0.8,0.062
			c0.233,0.039,0.43,0.112,0.602,0.224c0.163,0.106,0.29,0.255,0.388,0.456c0.101,0.204,0.151,0.485,0.151,0.834v8.46
			c0,0.35-0.051,0.631-0.151,0.835c-0.097,0.197-0.222,0.341-0.38,0.438c-0.174,0.104-0.371,0.173-0.605,0.207
			c-0.249,0.037-0.52,0.057-0.804,0.057h-0.602v1.62h8.087v-1.62h-0.603C81.588,19.437,81.317,19.416,81.064,19.374z"/>
		<path fill="#FFFFFF" d="M89.792,19.374c-0.23-0.038-0.427-0.112-0.597-0.228c-0.165-0.111-0.29-0.267-0.383-0.474
			c-0.097-0.221-0.146-0.524-0.146-0.903V0.273h-5.545v1.621h0.589c0.282,0,0.553,0.019,0.805,0.056
			c0.228,0.033,0.429,0.106,0.597,0.216c0.163,0.106,0.29,0.255,0.388,0.456c0.1,0.202,0.15,0.483,0.15,0.834V17.77
			c0,0.379-0.052,0.681-0.154,0.899c-0.097,0.211-0.222,0.367-0.382,0.479c-0.167,0.114-0.36,0.188-0.591,0.227
			c-0.249,0.042-0.522,0.062-0.812,0.062h-0.589v1.62h8.074v-1.62h-0.59C90.315,19.437,90.042,19.416,89.792,19.374z"/>
		<path fill="#FFFFFF" d="M100.119,6.244v1.621h0.329c0.535,0,0.931,0.089,1.177,0.266c0.224,0.16,0.332,0.422,0.332,0.8
			c0,0.13-0.018,0.29-0.053,0.474c-0.036,0.183-0.092,0.381-0.168,0.593l-1.786,5.2c-0.229,0.656-0.431,1.268-0.596,1.815
			c-0.068,0.227-0.131,0.439-0.188,0.639c-0.002-0.007-0.004-0.014-0.006-0.021c-0.097-0.314-0.203-0.648-0.321-1.003
			s-0.244-0.714-0.38-1.078c-0.136-0.361-0.266-0.695-0.388-1.004l-1.955-4.754c-0.071-0.182-0.122-0.346-0.15-0.483
			c-0.026-0.14-0.04-0.276-0.04-0.403c0-0.366,0.099-0.622,0.303-0.782c0.218-0.172,0.571-0.259,1.051-0.259h0.328V6.244h-6.913
			v1.621h0.328c0.238,0,0.445,0.02,0.613,0.058c0.152,0.036,0.282,0.098,0.398,0.188c0.118,0.093,0.229,0.219,0.327,0.374
			c0.107,0.169,0.22,0.389,0.334,0.648l4.905,11.584c-0.209,0.7-0.465,1.356-0.761,1.952c-0.304,0.611-0.687,1.148-1.138,1.597
			c-0.451,0.445-0.992,0.8-1.607,1.053c-0.619,0.257-1.372,0.387-2.238,0.387h-0.25v1.765h0.484c0.794,0,1.506-0.036,2.115-0.106
			c0.621-0.072,1.177-0.205,1.652-0.394c0.48-0.189,0.918-0.448,1.302-0.771c0.374-0.315,0.726-0.722,1.047-1.208
			c0.311-0.478,0.61-1.055,0.892-1.714c0.275-0.645,0.575-1.412,0.892-2.282l4.055-11.209c0.151-0.415,0.293-0.758,0.42-1.02
			c0.119-0.245,0.246-0.438,0.379-0.574c0.122-0.126,0.254-0.209,0.401-0.254c0.163-0.049,0.364-0.074,0.599-0.074h0.328V6.244
			H100.119z"/>
	</g>
</g>
</svg>
