<?xml version="1.0" encoding="utf-8"?>
<!-- Generator: Adobe Illustrator 16.0.4, SVG Export Plug-In . SVG Version: 6.00 Build 0)  -->
<!DOCTYPE svg PUBLIC "-//W3C//DTD SVG 1.1//EN" "http://www.w3.org/Graphics/SVG/1.1/DTD/svg11.dtd">
<svg version="1.1" id="Layer_1" xmlns="http://www.w3.org/2000/svg" xmlns:xlink="http://www.w3.org/1999/xlink" x="0px" y="0px"
	 width="83.918px" height="87.369px" viewBox="0 0 83.918 87.369" enable-background="new 0 0 83.918 87.369" xml:space="preserve">
<g id="Layer_1_1_">
	<path fill="#44A069" d="M58.834,14.347c-1.697,9.001-9.466,16.073-17.713,19.222c-5.648,2.156-26.778,6.49-15.808,27.39
		c-1.938,3.551-4.408,9.881-4.408,9.881l3.45,2.185c-1.142-1.754,3.17-10.026,3.17-10.026s-0.304,1.239-0.31,1.231
		c0.01-0.168,4.248-16.401,21.742-21.698c0,0-16.554,8.196-19.493,22.432c6.648-0.315,21.821,3.724,29.638-12.688
		C65.727,41.031,62.757,26.578,58.834,14.347z"/>
</g>
<g id="Layer_2">
</g>
</svg>
