<?xml version="1.0" encoding="utf-8"?>
<!-- Generator: Adobe Illustrator 16.0.0, SVG Export Plug-In . SVG Version: 6.00 Build 0)  -->
<!DOCTYPE svg PUBLIC "-//W3C//DTD SVG 1.1//EN" "http://www.w3.org/Graphics/SVG/1.1/DTD/svg11.dtd">
<svg version="1.1" id="Layer_1" xmlns="http://www.w3.org/2000/svg" xmlns:xlink="http://www.w3.org/1999/xlink" x="0px" y="0px"
	 width="17.35px" height="24.178px" viewBox="0 0 17.35 24.178" enable-background="new 0 0 17.35 24.178" xml:space="preserve">
<path fill="#118E45" d="M15.628,0c-0.698,3.709-3.899,6.623-7.299,7.92C6.003,8.809-2.704,10.595,1.816,19.207
	C1.018,20.67,0,23.278,0,23.278l1.421,0.899c-0.47-0.723,1.306-4.132,1.306-4.132S2.603,20.557,2.6,20.554
	c0.004-0.068,1.75-6.759,8.958-8.94c0,0-6.821,3.378-8.032,9.243c2.739-0.131,8.991,1.533,12.212-5.229
	C18.468,10.996,17.245,5.04,15.628,0z"/>
</svg>
