<?xml version="1.0" encoding="utf-8"?>
<!-- Generator: Adobe Illustrator 16.0.4, SVG Export Plug-In . SVG Version: 6.00 Build 0)  -->
<!DOCTYPE svg PUBLIC "-//W3C//DTD SVG 1.1//EN" "http://www.w3.org/Graphics/SVG/1.1/DTD/svg11.dtd">
<svg version="1.1" id="Layer_1" xmlns="http://www.w3.org/2000/svg" xmlns:xlink="http://www.w3.org/1999/xlink" x="0px" y="0px"
	 width="83.918px" height="87.369px" viewBox="0 0 83.918 87.369" enable-background="new 0 0 83.918 87.369" xml:space="preserve">
<g id="Layer_1_1_">
</g>
<g>
	<g>
		<g id="XMLID_1_">
			<g>
				<path fill="#2D4458" d="M75.039,51.425v13.569c0,2.811-2.28,5.091-5.09,5.091h-55.98c-2.8,0-5.09-2.29-5.09-5.091V51.425
					c0-2.811,2.28-5.09,5.09-5.09h55.98C72.759,46.335,75.039,48.614,75.039,51.425z M71.649,64.994V51.425
					c0-0.94-0.761-1.7-1.7-1.7h-55.98c-0.93,0-1.7,0.76-1.7,1.7v13.569c0,0.931,0.76,1.69,1.7,1.69h55.98
					C70.889,66.685,71.649,65.935,71.649,64.994z"/>
				<path fill="#2D4458" d="M75.039,22.375v13.57c0,2.81-2.28,5.09-5.09,5.09h-55.98c-2.8,0-5.09-2.28-5.09-5.09v-13.57
					c0-2.8,2.28-5.09,5.09-5.09h55.98C72.759,17.285,75.039,19.575,75.039,22.375z M71.649,35.944v-13.57
					c0-0.93-0.761-1.69-1.7-1.69h-55.98c-0.93,0-1.7,0.76-1.7,1.69v13.57c0,0.94,0.76,1.7,1.7,1.7h55.98
					C70.889,37.645,71.649,36.885,71.649,35.944z"/>
				<path fill="#2D4458" d="M66.559,24.075c0.931,0,1.69,0.76,1.69,1.69c0,0.94-0.76,1.7-1.69,1.7h-22.06
					c-0.93,0-1.69-0.76-1.69-1.7c0-0.93,0.761-1.69,1.69-1.69H66.559z"/>
				<path fill="#2D4458" d="M66.559,30.854c0.931,0,1.69,0.76,1.69,1.7s-0.76,1.7-1.69,1.7h-22.06c-0.93,0-1.69-0.76-1.69-1.7
					s0.761-1.7,1.69-1.7H66.559z"/>
				<path fill="#2D4458" d="M66.559,53.125c0.931,0,1.69,0.76,1.69,1.689c0,0.94-0.76,1.7-1.69,1.7h-22.06
					c-0.93,0-1.69-0.76-1.69-1.7c0-0.93,0.761-1.689,1.69-1.689H66.559z"/>
				<path fill="#2D4458" d="M66.559,59.904c0.931,0,1.69,0.761,1.69,1.7c0,0.93-0.76,1.69-1.69,1.69h-22.06
					c-0.93,0-1.69-0.761-1.69-1.69c0-0.939,0.761-1.7,1.69-1.7H66.559z"/>
				<path fill="#2D4458" d="M39.419,52.194v8.48c0,0.46-0.37,0.83-0.83,0.84c-2.97,0.08-4.45,1.479-4.51,1.54
					c-0.02,0.01-0.04,0.02-0.05,0.03c-0.07,0.06-0.15,0.109-0.23,0.149c-0.04,0.021-0.09,0.01-0.12,0.021
					c-0.07,0.02-0.13,0.04-0.2,0.04s-0.12-0.021-0.18-0.03c-0.05-0.01-0.1-0.01-0.14-0.03c-0.11-0.04-0.2-0.109-0.28-0.189
					c-1.43-1.431-4.48-1.53-4.51-1.53c-0.46-0.01-0.83-0.39-0.83-0.84v-8.48c0-0.229,0.1-0.45,0.26-0.609
					c0.16-0.16,0.39-0.23,0.61-0.24c0.14,0,3.11,0.09,5.09,1.53c0.84-0.58,2.52-1.471,5.05-1.53c0.24,0,0.45,0.08,0.61,0.24
					C39.329,51.744,39.419,51.965,39.419,52.194z M37.719,59.875v-6.78c-1.8,0.21-2.92,0.91-3.39,1.27v6.5
					C35.129,60.444,36.249,60.015,37.719,59.875z M32.629,60.854v-6.47c-0.97-0.8-2.45-1.141-3.39-1.271v6.78
					C30.079,59.984,31.419,60.255,32.629,60.854z"/>
				<path fill="#2D4458" d="M39.419,23.145v8.48c0,0.46-0.37,0.84-0.83,0.85c-2.97,0.07-4.45,1.47-4.51,1.53
					c-0.02,0.02-0.04,0.02-0.05,0.03c-0.07,0.06-0.15,0.12-0.23,0.15c-0.04,0.02-0.09,0.02-0.12,0.03c-0.07,0.01-0.13,0.04-0.2,0.04
					s-0.12-0.03-0.18-0.04c-0.05-0.01-0.1-0.01-0.14-0.03c-0.11-0.04-0.2-0.1-0.28-0.18c-1.43-1.43-4.48-1.53-4.51-1.53
					c-0.46-0.02-0.83-0.39-0.83-0.85v-8.48c0-0.23,0.1-0.45,0.26-0.61c0.16-0.16,0.39-0.23,0.61-0.24c0.14,0,3.11,0.09,5.09,1.53
					c0.84-0.58,2.52-1.47,5.05-1.53c0.24,0.01,0.45,0.08,0.61,0.24C39.329,22.694,39.419,22.915,39.419,23.145z M37.719,30.825
					v-6.78c-1.8,0.22-2.92,0.91-3.39,1.27v6.5C35.129,31.395,36.249,30.975,37.719,30.825z M32.629,31.805v-6.47
					c-0.97-0.8-2.45-1.14-3.39-1.27v6.78C30.079,30.944,31.419,31.205,32.629,31.805z"/>
				<path fill="#2D4458" d="M24.149,62.444v0.851h-0.09h-8.31h-0.08v-0.851c0-2.34,1.9-4.24,4.24-4.24
					C22.249,58.204,24.149,60.104,24.149,62.444z"/>
				<path fill="#2D4458" d="M24.149,33.405v0.85h-0.09h-8.31h-0.08v-0.85c0-2.35,1.9-4.24,4.24-4.24
					C22.249,29.165,24.149,31.055,24.149,33.405z"/>
				<path fill="#2D4458" d="M19.909,22.375c1.4,0,2.54,1.14,2.54,2.55c0,1.4-1.14,2.54-2.54,2.54c-1.41,0-2.55-1.14-2.55-2.54
					C17.359,23.515,18.499,22.375,19.909,22.375z"/>
				<path fill="#2D4458" d="M19.909,51.425c1.4,0,2.54,1.14,2.54,2.54c0,1.41-1.14,2.55-2.54,2.55c-1.41,0-2.55-1.14-2.55-2.55
					C17.359,52.564,18.499,51.425,19.909,51.425z"/>
			</g>
			<g>
			</g>
		</g>
	</g>
</g>
</svg>
