<?xml version="1.0" encoding="utf-8"?>
<!-- Generator: Adobe Illustrator 16.0.3, SVG Export Plug-In . SVG Version: 6.00 Build 0)  -->
<!DOCTYPE svg PUBLIC "-//W3C//DTD SVG 1.1//EN" "http://www.w3.org/Graphics/SVG/1.1/DTD/svg11.dtd">
<svg version="1.1" xmlns="http://www.w3.org/2000/svg" xmlns:xlink="http://www.w3.org/1999/xlink" x="0px" y="0px"
	 width="83.918px" height="87.369px" viewBox="0 0 83.918 87.369" enable-background="new 0 0 83.918 87.369" xml:space="preserve">
<g id="Layer_1">
</g>
<g id="Layer_2">
	<g>
		<g>
			<path fill="#FFFFFF" d="M13.969,41.035h55.979c2.807,0,5.09-2.281,5.09-5.088V22.376c0-2.806-2.283-5.089-5.09-5.089H13.969
				c-2.806,0-5.089,2.283-5.089,5.089v13.571C8.88,38.752,11.164,41.035,13.969,41.035z M12.274,22.376
				c0-0.936,0.76-1.696,1.695-1.696h55.979c0.938,0,1.697,0.761,1.697,1.696v13.571c0,0.936-0.76,1.695-1.697,1.695H13.969
				c-0.936,0-1.695-0.76-1.695-1.695V22.376z"/>
			<path fill="#FFFFFF" d="M44.502,27.465h22.053c0.938,0,1.697-0.76,1.697-1.696s-0.76-1.696-1.697-1.696H44.502
				c-0.936,0-1.695,0.76-1.695,1.696S43.567,27.465,44.502,27.465z"/>
			<path fill="#FFFFFF" d="M44.502,34.25h22.053c0.938,0,1.697-0.76,1.697-1.696s-0.76-1.696-1.697-1.696H44.502
				c-0.936,0-1.695,0.76-1.695,1.696S43.567,34.25,44.502,34.25z"/>
			<circle fill="#FFFFFF" cx="19.907" cy="24.92" r="2.544"/>
			<path fill="#FFFFFF" d="M24.061,34.25h0.086v-0.849c0-2.342-1.898-4.241-4.24-4.241s-4.24,1.899-4.24,4.241v0.849h0.086H24.061z"
				/>
			<path fill="#FFFFFF" d="M28.366,32.471c0.031,0,3.08,0.1,4.512,1.531c0.08,0.078,0.174,0.141,0.277,0.184
				c0.047,0.018,0.094,0.018,0.141,0.028c0.061,0.013,0.117,0.036,0.184,0.036c0.068,0,0.129-0.023,0.195-0.039
				c0.039-0.01,0.082-0.008,0.121-0.025c0.086-0.034,0.16-0.088,0.229-0.147c0.014-0.013,0.033-0.017,0.049-0.032
				c0.064-0.059,1.541-1.462,4.514-1.535c0.461-0.012,0.83-0.388,0.83-0.849v-8.48c0-0.229-0.094-0.447-0.256-0.607
				c-0.164-0.158-0.369-0.236-0.613-0.241c-2.525,0.062-4.211,0.952-5.051,1.532c-1.98-1.438-4.947-1.529-5.086-1.532
				c-0.223,0.01-0.449,0.083-0.613,0.241c-0.162,0.159-0.256,0.379-0.256,0.607v8.481C27.54,32.082,27.907,32.457,28.366,32.471z
				 M34.327,25.314c0.471-0.355,1.592-1.051,3.393-1.265v6.775c-1.471,0.147-2.592,0.575-3.393,0.993V25.314z M29.237,24.068
				c0.943,0.126,2.418,0.467,3.393,1.27v6.471c-1.209-0.606-2.549-0.869-3.393-0.967V24.068z"/>
		</g>
		<g>
			<path fill="#FFFFFF" d="M13.969,70.082h55.979c2.807,0,5.09-2.281,5.09-5.088V51.423c0-2.807-2.283-5.09-5.09-5.09H13.969
				c-2.806,0-5.089,2.283-5.089,5.09v13.571C8.88,67.799,11.164,70.082,13.969,70.082z M12.274,51.423
				c0-0.936,0.76-1.696,1.695-1.696h55.979c0.938,0,1.697,0.761,1.697,1.696v13.571c0,0.936-0.76,1.695-1.697,1.695H13.969
				c-0.936,0-1.695-0.76-1.695-1.695V51.423z"/>
			<path fill="#FFFFFF" d="M44.502,56.512h22.053c0.938,0,1.697-0.76,1.697-1.696s-0.76-1.696-1.697-1.696H44.502
				c-0.936,0-1.695,0.76-1.695,1.696S43.567,56.512,44.502,56.512z"/>
			<path fill="#FFFFFF" d="M44.502,63.297h22.053c0.938,0,1.697-0.76,1.697-1.696s-0.76-1.696-1.697-1.696H44.502
				c-0.936,0-1.695,0.76-1.695,1.696S43.567,63.297,44.502,63.297z"/>
			<circle fill="#FFFFFF" cx="19.907" cy="53.967" r="2.544"/>
			<path fill="#FFFFFF" d="M24.061,63.297h0.086v-0.849c0-2.342-1.898-4.241-4.24-4.241s-4.24,1.899-4.24,4.241v0.849h0.086H24.061z
				"/>
			<path fill="#FFFFFF" d="M28.366,61.518c0.031,0,3.08,0.1,4.512,1.531c0.08,0.078,0.174,0.141,0.277,0.184
				c0.047,0.018,0.094,0.018,0.141,0.028c0.061,0.013,0.117,0.036,0.184,0.036c0.068,0,0.129-0.023,0.195-0.039
				c0.039-0.01,0.082-0.008,0.121-0.025c0.086-0.034,0.16-0.088,0.229-0.147c0.014-0.013,0.033-0.017,0.049-0.032
				c0.064-0.059,1.541-1.462,4.514-1.535c0.461-0.012,0.83-0.388,0.83-0.849v-8.48c0-0.229-0.094-0.447-0.256-0.607
				c-0.164-0.158-0.369-0.236-0.613-0.242c-2.525,0.062-4.211,0.953-5.051,1.533c-1.98-1.438-4.947-1.529-5.086-1.533
				c-0.223,0.01-0.449,0.084-0.613,0.242c-0.162,0.159-0.256,0.379-0.256,0.607v8.481C27.54,61.129,27.907,61.504,28.366,61.518z
				 M34.327,54.361c0.471-0.355,1.592-1.051,3.393-1.265v6.775c-1.471,0.147-2.592,0.575-3.393,0.993V54.361z M29.237,53.115
				c0.943,0.126,2.418,0.467,3.393,1.27v6.471c-1.209-0.606-2.549-0.869-3.393-0.967V53.115z"/>
		</g>
	</g>
</g>
</svg>
