<?xml version="1.0" encoding="utf-8"?>
<!-- Generator: Adobe Illustrator 16.0.4, SVG Export Plug-In . SVG Version: 6.00 Build 0)  -->
<!DOCTYPE svg PUBLIC "-//W3C//DTD SVG 1.1//EN" "http://www.w3.org/Graphics/SVG/1.1/DTD/svg11.dtd">
<svg version="1.1" id="Layer_1" xmlns="http://www.w3.org/2000/svg" xmlns:xlink="http://www.w3.org/1999/xlink" x="0px" y="0px"
	 width="83.918px" height="87.369px" viewBox="0 0 83.918 87.369" enable-background="new 0 0 83.918 87.369" xml:space="preserve">
<g>
	<g id="XMLID_1_">
		<g>
			<path fill="#44A069" d="M77.609,33.504c-3.37-1.59-6.311-0.19-7.051,0.23c0.011-0.01,0.03-0.02,0.04-0.03
				c-0.229,0.08-2.06,0.78-2.14,1.24l-0.25-0.94c0,0,1.44-0.72,2.35-1.03c1.42-5.43,5.83-2.8,7.17-2.28
				c1.95,0.77,4.45,0.77,6.19-0.54c-1.27,2.78-3.07,5.79-6.03,6.71c-4,1.63-6.02-1.51-7.239-2.52
				C73.259,32.455,77.099,33.375,77.609,33.504z"/>
			<path fill="#44A069" d="M68.829,48.835c-5.521-4.68-11.75-3.24-12.95-2.9c0.15-0.06,0.32-0.11,0.32-0.11s-4.08,0.38-4.46,1.221
				l-0.021-1.79c0,0,2.931-0.601,4.7-0.73c5.09-9.03,11.72-2.28,13.87-0.71c3.13,2.29,7.59,3.47,11.31,1.95
				c-3.569,4.36-8.189,8.9-13.92,9.14c-7.92,1.04-10.05-5.52-11.75-7.899C61.699,44.765,68.419,48.595,68.829,48.835z"/>
			<path fill="#44A069" d="M50.399,19.535c0,0,0.38-1.57,0.729-2.47c-3.229-4.58,1.61-6.26,2.88-6.95c1.84-1,3.45-2.9,3.57-5.08
				c1.31,2.76,2.46,6.08,1.25,8.93c-1.34,4.12-5.04,3.64-6.601,3.92c0.24-3.34,3.681-5.75,3.891-5.89
				c-3.66,1.67-4.351,5.18-4.43,5.71c0.01-0.09,0.02-0.22,0.02-0.22s-0.75,2.08-0.43,2.46L50.399,19.535z"/>
			<path fill="#FFFFFF" d="M50.309,35.694c0,0.02-0.01,0.03-0.02,0.04C50.299,35.725,50.299,35.705,50.309,35.694z"/>
			<path fill="#44A069" d="M61.059,26.584c-7.43,1.67-10.21,7.76-10.739,9.08c0.029-0.1,0.069-0.2,0.08-0.26
				c-0.25,0.41-2.24,3.71-1.79,4.52l-1.53-1.14c0,0,1.36-2.86,2.38-4.44c-4.39-10.09,5.58-11.39,8.28-12.2
				c3.939-1.18,7.79-4.21,8.89-8.34c1.41,5.82,2.3,12.64-1.16,17.65c-4.2,7.36-11.109,4.97-14.22,4.89
				C53.039,30.024,60.589,26.785,61.059,26.584z"/>
			<path fill="#93673F" d="M42.599,54.574c3.87-3.069,6.28-8.609,6.28-8.609l0.65,0.63c0,0-1.49,5.859-4.82,9.5
				c-1.18,1.3-2.58,2.5-3.9,3.52c0.05,0.561,0.09,1.13,0.15,1.7c1.31,12.99,7.92,25.69,7.92,25.69l-7.14,0.359
				c0,0-5.34-13.279-5.37-26.34c-0.04-16.43,4.7-28.35,4.7-28.35l1.66,0.54c-0.58,2.29-2.58,11.11-2.14,22.791
				C41.289,55.555,41.969,55.085,42.599,54.574z"/>
			<path fill="#44A069" d="M48.309,12.694c2,7.73-4.25,10.65-6.399,12.63c-2.89-5.38-0.03-12.42,0.22-13.01
				c-3.91,5.99-1.8,11.94-1.3,13.16c-0.06-0.13-0.13-0.27-0.13-0.27s0.88,4,1.76,4.27l-1.77,0.24c0,0-0.96-2.83-1.31-4.57
				c-9.58-3.95-3.69-11.36-2.4-13.68c1.89-3.38,2.52-7.96,0.55-11.46C42.299,3.015,47.369,7.044,48.309,12.694z"/>
			<path fill="#FFFFFF" d="M31.029,38.245c0.04,0.02,0.08,0.04,0.11,0.06C31.109,38.285,31.069,38.274,31.029,38.245z"/>
			<path fill="#44A069" d="M23.019,25.165c0.56,8.34,6.75,12.36,8.01,13.08c-0.12-0.06-0.27-0.13-0.32-0.16
				c0.31,0.27,3.63,3.05,4.58,2.7l-1.48,1.46c0,0-2.84-1.94-4.38-3.3c-11.57,3.04-11.31-7.9-11.74-10.93
				c-0.61-4.44-3.23-9.08-7.48-10.94c6.49-0.55,13.97-0.37,18.77,4.18c7.23,5.73,3.5,12.77,2.9,16.09
				C25.179,34.274,23.019,25.165,23.019,25.165z"/>
			<path fill="#FFFFFF" d="M29.219,45.774c0,0.01-0.01,0.01-0.03,0.03C29.209,45.784,29.219,45.774,29.219,45.774z"/>
			<path fill="#44A069" d="M16.679,47.515c6.04,2.22,10.87-0.58,12.18-1.46c-0.02,0.02-0.03,0.03-0.04,0.04
				c0.2-0.09,3.47-1.67,3.52-2.5l0.59,1.58c0,0-2.38,1.47-3.9,2.149c-1.59,9.601-9.61,5.771-12,5.08c-3.49-1.01-7.8-0.62-10.6,1.92
				c1.75-5,4.36-10.49,9.34-12.54c6.64-3.45,10.63,1.65,12.89,3.19C24.159,48.925,16.679,47.515,16.679,47.515z"/>
			<path fill="#44A069" d="M28.789,16.895c-5.61,0.31-4.45-4.69-4.36-6.13c0.13-2.09-0.63-4.47-2.41-5.73
				c3.04,0.36,6.46,1.15,8.23,3.7c2.78,3.31,0.4,6.19-0.19,7.66c-2.79-2.04-2.92-6.43-2.92-6.43c-0.5,3.72,1.73,6.1,2.37,6.7
				c-0.04-0.03-0.07-0.05-0.07-0.05s1.37,1.76,1.86,1.68l-0.82,0.53C30.479,18.825,29.359,17.665,28.789,16.895z"/>
			<path fill="#44A069" d="M14.979,36.365c0,0,2.45,0.26,2.77-0.19l-0.21,1.06c0,0-1.79,0-2.85-0.13c-4.08,4.71-7.18-0.06-8.26-1.24
				c-1.57-1.73-4.05-2.95-6.43-2.5c2.63-2.15,5.9-4.27,9.3-3.73c4.79,0.34,5.26,4.46,5.97,6.06c-3.57,0.61-6.98-2.26-7.36-2.59
				c2.66,3.35,6.43,3.29,7.24,3.23C15.059,36.354,14.979,36.365,14.979,36.365z"/>
		</g>
		<g>
		</g>
	</g>
</g>
</svg>
