<?xml version="1.0" encoding="utf-8"?>
<!-- Generator: Adobe Illustrator 16.0.3, SVG Export Plug-In . SVG Version: 6.00 Build 0)  -->
<!DOCTYPE svg PUBLIC "-//W3C//DTD SVG 1.1//EN" "http://www.w3.org/Graphics/SVG/1.1/DTD/svg11.dtd">
<svg version="1.1" id="Layer_1" xmlns="http://www.w3.org/2000/svg" xmlns:xlink="http://www.w3.org/1999/xlink" x="0px" y="0px"
	 width="83.918px" height="87.369px" viewBox="0 0 83.918 87.369" enable-background="new 0 0 83.918 87.369" xml:space="preserve">
<g>
	<path fill="#FFFFFF" d="M44.714,56.096c3.326-3.646,4.819-9.503,4.819-9.503l-0.655-0.63c0,0-2.409,5.543-6.274,8.613
		c-0.637,0.504-1.317,0.979-2.01,1.426c-0.45-11.681,1.55-20.501,2.132-22.79l-1.653-0.542c0,0-4.749,11.929-4.706,28.358
		c0.036,13.061,5.374,26.341,5.374,26.341l7.136-0.364c0,0-6.606-12.698-7.916-25.69c-0.057-0.575-0.106-1.142-0.15-1.705
		C42.128,58.595,43.533,57.395,44.714,56.096z"/>
	<path fill="#FFFFFF" d="M28.81,46.106c0,0,0.196-0.159,0.316-0.256c-0.722,0.547-5.871,4.084-12.446,1.66
		c0,0,7.479,1.419,11.98-2.531c-2.263-1.548-6.248-6.646-12.896-3.191c-4.97,2.05-7.583,7.539-9.333,12.535
		c2.793-2.538,7.104-2.933,10.597-1.919c2.393,0.693,10.415,4.518,12.002-5.077c1.519-0.687,3.903-2.153,3.903-2.153l-0.592-1.575
		C32.284,44.458,28.81,46.106,28.81,46.106z"/>
	<path fill="#FFFFFF" d="M29.126,45.851c0.054-0.041,0.089-0.068,0.092-0.072C29.218,45.777,29.177,45.81,29.126,45.851z"/>
	<path fill="#FFFFFF" d="M14.689,37.104c1.061,0.133,2.854,0.13,2.854,0.13l0.204-1.059c-0.32,0.45-2.77,0.188-2.77,0.188
		s0.165-0.022,0.263-0.035c-0.565,0.057-4.574,0.273-7.36-3.258c0,0,3.611,3.278,7.394,2.627c-0.719-1.603-1.189-5.722-5.978-6.06
		C5.894,29.093,2.628,31.217,0,33.362c2.376-0.452,4.863,0.775,6.433,2.498C7.508,37.04,10.611,41.814,14.689,37.104z"/>
	<path fill="#FFFFFF" d="M15.24,36.328c0.041-0.004,0.067-0.007,0.07-0.008C15.31,36.319,15.28,36.323,15.24,36.328z"/>
	<path fill="#FFFFFF" d="M24.426,10.768c-0.092,1.434-1.246,6.432,4.358,6.128c0.576,0.771,1.7,1.93,1.7,1.93l0.813-0.53
		c-0.491,0.074-1.853-1.677-1.853-1.677s0.111,0.088,0.181,0.145c-0.404-0.345-3.03-2.802-2.486-6.804c0,0,0.133,4.391,2.922,6.435
		c0.589-1.468,2.964-4.35,0.188-7.665c-1.774-2.543-5.193-3.332-8.228-3.694C23.801,6.294,24.561,8.672,24.426,10.768z"/>
	<path fill="#FFFFFF" d="M29.626,16.764c0.031,0.026,0.052,0.043,0.055,0.045C29.681,16.808,29.657,16.788,29.626,16.764z"/>
	<path fill="#FFFFFF" d="M51.688,17.707c-0.007,0.042-0.01,0.07-0.01,0.073C51.679,17.78,51.683,17.747,51.688,17.707z"/>
	<path fill="#FFFFFF" d="M50.396,19.533l0.881,0.407c-0.323-0.377,0.437-2.46,0.437-2.46s-0.016,0.138-0.025,0.227
		c0.078-0.533,0.768-4.056,4.442-5.719c0,0-3.649,2.446-3.899,5.895c1.557-0.281,5.261,0.199,6.594-3.914
		c1.211-2.854,0.062-6.17-1.243-8.933c-0.12,2.176-1.731,4.083-3.578,5.083c-1.264,0.684-6.111,2.362-2.876,6.948
		C50.781,17.965,50.396,19.533,50.396,19.533z"/>
	<path fill="#FFFFFF" d="M70.431,33.817c-0.035,0.021-0.059,0.037-0.061,0.039C70.371,33.856,70.398,33.839,70.431,33.817z"/>
	<path fill="#FFFFFF" d="M70.623,33.69c0,0-0.117,0.079-0.191,0.127c0.452-0.281,3.594-2.03,7.237-0.291
		c0,0-4.223-1.213-7.021,0.818c1.219,1.009,3.239,4.15,7.243,2.518c2.963-0.915,4.757-3.93,6.027-6.708
		c-1.74,1.311-4.237,1.309-6.192,0.541c-1.337-0.525-5.745-3.15-7.166,2.28c-0.909,0.313-2.356,1.031-2.356,1.031l0.256,0.936
		C68.54,34.452,70.623,33.69,70.623,33.69z"/>
	<path fill="#FFFFFF" d="M30.691,38.079c0,0,0.284,0.144,0.452,0.229c-0.963-0.526-7.546-4.533-8.129-13.148
		c0,0,2.168,9.113,8.869,12.184c0.6-3.321,4.321-10.359-2.899-16.09c-4.803-4.552-12.283-4.728-18.775-4.179
		c4.255,1.861,6.868,6.504,7.485,10.937c0.426,3.037,0.163,13.97,11.736,10.928c1.536,1.362,4.383,3.302,4.383,3.302l1.473-1.458
		C34.29,41.15,30.691,38.079,30.691,38.079z"/>
	<path fill="#FFFFFF" d="M31.143,38.309c0.071,0.039,0.117,0.062,0.123,0.064C31.267,38.372,31.213,38.344,31.143,38.309z"/>
	<path fill="#FFFFFF" d="M40.685,29.713l1.778-0.238c-0.879-0.268-1.76-4.27-1.76-4.27s0.118,0.241,0.189,0.39
		c-0.396-0.884-2.836-7.078,1.256-13.322c0,0-3.263,7.427-0.239,13.049c2.149-1.981,8.396-4.898,6.402-12.629
		C47.373,7.041,42.297,3.012,37.527,0c1.967,3.508,1.346,8.08-0.543,11.464c-1.293,2.32-7.186,9.735,2.398,13.679
		C39.732,26.886,40.685,29.713,40.685,29.713z"/>
	<path fill="#FFFFFF" d="M40.893,25.596c0.029,0.066,0.051,0.109,0.054,0.114C40.948,25.709,40.923,25.659,40.893,25.596z"/>
	<path fill="#FFFFFF" d="M51.253,36.348c3.102,0.078,10.02,2.471,14.213-4.896c3.459-5.003,2.568-11.824,1.158-17.645
		c-1.093,4.126-4.944,7.153-8.887,8.337c-2.699,0.813-12.669,2.11-8.279,12.198c-1.021,1.587-2.384,4.447-2.384,4.447l1.531,1.133
		c-0.472-0.854,1.813-4.555,1.813-4.555s-0.088,0.271-0.144,0.437c0.351-0.965,3.068-7.49,10.802-9.227
		C61.078,26.578,53.103,29.829,51.253,36.348z"/>
	<path fill="#FFFFFF" d="M50.276,35.804c-0.026,0.072-0.042,0.121-0.043,0.126C50.234,35.931,50.252,35.875,50.276,35.804z"/>
	<path fill="#FFFFFF" d="M70.288,43.816c-2.145-1.567-8.78-8.323-13.869,0.704c-1.773,0.133-4.696,0.732-4.696,0.732l0.018,1.795
		c0.375-0.84,4.454-1.224,4.454-1.224s-0.249,0.086-0.405,0.139c0.941-0.289,7.376-1.938,13.062,2.881c0,0-6.972-4.147-12.921-1.837
		c1.702,2.376,3.833,8.934,11.749,7.902c5.725-0.24,10.346-4.783,13.919-9.147C77.876,47.283,73.416,46.106,70.288,43.816z"/>
	<path fill="#FFFFFF" d="M55.789,45.963c-0.072,0.022-0.12,0.038-0.125,0.041C55.665,46.005,55.719,45.986,55.789,45.963z"/>
</g>
</svg>
